<svg xmlns="http://www.w3.org/2000/svg" width="24" height="24" viewBox="0 0 24 24" fill="none" stroke="currentColor" stroke-width="1.75" stroke-linecap="round" stroke-linejoin="round" class="icon icon-tabler icons-tabler-outline icon-tabler-tea"><path stroke="none" d="M0 0h24v24H0z" fill="none"/><path d="M9 3c0 1 -1 1.25 -1 2s1 1 1 2"/><path d="M15 3c0 1 -1 1.25 -1 2s1 1 1 2"/><path d="M3 10h14a2 2 0 0 1 2 2v2a4 4 0 0 1 -4 4h-7a4 4 0 0 1 -4 -4v-4z"/><path d="M17 13h2a2 2 0 0 1 0 4h-1"/><path d="M3 19h14"/></svg>
